<svg xmlns="http://www.w3.org/2000/svg" viewBox="0 0 650 340" font-family="sans-serif" font-size="12">
  <style>
    .bar-label { font-size: 11px; text-anchor: end; dominant-baseline: central; }
    .bar-value { font-size: 11px; text-anchor: start; dominant-baseline: central; fill: #374151; }
    .title { font-size: 14px; font-weight: bold; text-anchor: middle; }
    .axis { stroke: #d1d5db; stroke-width: 1; }
  </style>

  <text x="350" y="20" class="title">Findings per Package (all 11 packages)</text>

  <!-- Axis -->
  <line x1="170" y1="35" x2="170" y2="310" class="axis"/>

  <!-- plugin-canvas: 51 -->
  <g transform="translate(0,42)">
    <text x="165" y="13" class="bar-label">plugin-canvas</text>
    <rect x="172" y="2" width="306" height="22" rx="3" fill="#ef4444" opacity="0.8"/>
    <text x="482" y="13" class="bar-value">51</text>
  </g>

  <!-- plugin-copilot: 34 -->
  <g transform="translate(0,70)">
    <text x="165" y="13" class="bar-label">plugin-copilot</text>
    <rect x="172" y="2" width="204" height="22" rx="3" fill="#f97316" opacity="0.8"/>
    <text x="380" y="13" class="bar-value">34</text>
  </g>

  <!-- plugin-voice: 21 -->
  <g transform="translate(0,98)">
    <text x="165" y="13" class="bar-label">plugin-voice</text>
    <rect x="172" y="2" width="126" height="22" rx="3" fill="#eab308" opacity="0.8"/>
    <text x="302" y="13" class="bar-value">21</text>
  </g>

  <!-- plugin-realtime: 18 -->
  <g transform="translate(0,126)">
    <text x="165" y="13" class="bar-label">plugin-realtime</text>
    <rect x="172" y="2" width="108" height="22" rx="3" fill="#eab308" opacity="0.8"/>
    <text x="284" y="13" class="bar-value">18</text>
  </g>

  <!-- plugin-email: 13 -->
  <g transform="translate(0,154)">
    <text x="165" y="13" class="bar-label">plugin-email</text>
    <rect x="172" y="2" width="78" height="22" rx="3" fill="#22c55e" opacity="0.8"/>
    <text x="254" y="13" class="bar-value">13</text>
  </g>

  <!-- plugin-payments: 7 -->
  <g transform="translate(0,182)">
    <text x="165" y="13" class="bar-label">plugin-payments</text>
    <rect x="172" y="2" width="42" height="22" rx="3" fill="#22c55e" opacity="0.8"/>
    <text x="218" y="13" class="bar-value">7</text>
  </g>

  <!-- auth-github: 4 -->
  <g transform="translate(0,210)">
    <text x="165" y="13" class="bar-label">auth-github</text>
    <rect x="172" y="2" width="24" height="22" rx="3" fill="#86efac"/>
    <text x="200" y="13" class="bar-value">4</text>
  </g>

  <!-- auth-magic-link: 4 -->
  <g transform="translate(0,238)">
    <text x="165" y="13" class="bar-label">auth-magic-link</text>
    <rect x="172" y="2" width="24" height="22" rx="3" fill="#86efac"/>
    <text x="200" y="13" class="bar-value">4</text>
  </g>

  <!-- plugin-forms: 4 -->
  <g transform="translate(0,266)">
    <text x="165" y="13" class="bar-label">plugin-forms</text>
    <rect x="172" y="2" width="24" height="22" rx="3" fill="#86efac"/>
    <text x="200" y="13" class="bar-value">4</text>
  </g>

  <!-- auth-google: 2, plugin-db-drizzle: 1 -->
  <g transform="translate(0,294)">
    <text x="165" y="13" class="bar-label">auth-google</text>
    <rect x="172" y="2" width="12" height="22" rx="3" fill="#86efac"/>
    <text x="188" y="13" class="bar-value">2</text>
  </g>

  <!-- Legend -->
  <text x="172" y="330" font-size="10" fill="#6b7280">plugin-db-drizzle: 1 finding. 7 findings have no file path (info-level completeness records).</text>
</svg>
