<svg xmlns="http://www.w3.org/2000/svg" width="640" height="420" font-family="-apple-system,Segoe UI,Roboto,sans-serif">
<rect width="640" height="420" fill="#0b0f17"/>
<text x="320.0" y="32" fill="#e5e7eb" font-size="18" font-weight="700" text-anchor="middle">theokit-plugins — Risk Matrix (impact × likelihood)</text>
<text x="350.0" y="58" fill="#9ca3af" font-size="12" text-anchor="middle">LIKELIHOOD →</text>
<text x="210.0" y="62" fill="#9ca3af" font-size="12" text-anchor="middle">Likely</text>
<text x="350.0" y="62" fill="#9ca3af" font-size="12" text-anchor="middle">Possible</text>
<text x="490.0" y="62" fill="#9ca3af" font-size="12" text-anchor="middle">Unlikely</text>
<text x="128" y="112.0" fill="#9ca3af" font-size="12" text-anchor="end">Critical</text>
<rect x="140" y="70" width="134" height="70" rx="8" fill="#b91c1c" opacity="1.0"/>
<text x="207.0" y="113.0" fill="#ffffff" font-size="22" font-weight="700" text-anchor="middle">1</text>
<rect x="280" y="70" width="134" height="70" rx="8" fill="#dc2626" opacity="0.3"/>
<text x="347.0" y="113.0" fill="#ffffff" font-size="22" font-weight="700" text-anchor="middle">0</text>
<rect x="420" y="70" width="134" height="70" rx="8" fill="#ef4444" opacity="0.3"/>
<text x="487.0" y="113.0" fill="#ffffff" font-size="22" font-weight="700" text-anchor="middle">0</text>
<text x="128" y="188.0" fill="#9ca3af" font-size="12" text-anchor="end">High</text>
<rect x="140" y="146" width="134" height="70" rx="8" fill="#ea580c" opacity="1.0"/>
<text x="207.0" y="189.0" fill="#ffffff" font-size="22" font-weight="700" text-anchor="middle">8</text>
<rect x="280" y="146" width="134" height="70" rx="8" fill="#f97316" opacity="1.0"/>
<text x="347.0" y="189.0" fill="#ffffff" font-size="22" font-weight="700" text-anchor="middle">7</text>
<rect x="420" y="146" width="134" height="70" rx="8" fill="#fb923c" opacity="1.0"/>
<text x="487.0" y="189.0" fill="#ffffff" font-size="22" font-weight="700" text-anchor="middle">11</text>
<text x="128" y="264.0" fill="#9ca3af" font-size="12" text-anchor="end">Medium</text>
<rect x="140" y="222" width="134" height="70" rx="8" fill="#ca8a04" opacity="1.0"/>
<text x="207.0" y="265.0" fill="#ffffff" font-size="22" font-weight="700" text-anchor="middle">12</text>
<rect x="280" y="222" width="134" height="70" rx="8" fill="#eab308" opacity="1.0"/>
<text x="347.0" y="265.0" fill="#ffffff" font-size="22" font-weight="700" text-anchor="middle">7</text>
<rect x="420" y="222" width="134" height="70" rx="8" fill="#facc15" opacity="1.0"/>
<text x="487.0" y="265.0" fill="#ffffff" font-size="22" font-weight="700" text-anchor="middle">15</text>
<text x="128" y="340.0" fill="#9ca3af" font-size="12" text-anchor="end">Low</text>
<rect x="140" y="298" width="134" height="70" rx="8" fill="#16a34a" opacity="1.0"/>
<text x="207.0" y="341.0" fill="#ffffff" font-size="22" font-weight="700" text-anchor="middle">2</text>
<rect x="280" y="298" width="134" height="70" rx="8" fill="#22c55e" opacity="1.0"/>
<text x="347.0" y="341.0" fill="#ffffff" font-size="22" font-weight="700" text-anchor="middle">5</text>
<rect x="420" y="298" width="134" height="70" rx="8" fill="#4ade80" opacity="1.0"/>
<text x="487.0" y="341.0" fill="#ffffff" font-size="22" font-weight="700" text-anchor="middle">4</text>
<text x="20" y="222" fill="#9ca3af" font-size="12" transform="rotate(-90 20 222)">IMPACT ↑</text>
<text x="140" y="392" fill="#6b7280" font-size="11">Likelihood heuristic: security/completeness=Likely · concurrency/error-handling=Possible · contract/complexity/test=Unlikely</text>
<text x="140" y="410" fill="#6b7280" font-size="11">1 critical (canvas REST stored-XSS) · 26 high · 34 medium · 11 low. Engagement threshold: high.</text>
</svg>